<svg xmlns="http://www.w3.org/2000/svg" viewBox="0 0 500 500"><g id="freepik--background-complete--inject-32"><rect y="382.4" width="500" height="0.25" style="fill:#ebebeb"></rect><rect x="52.46" y="391.92" width="33.12" height="0.25" style="fill:#ebebeb"></rect><rect x="171.14" y="389.21" width="46.75" height="0.25" style="fill:#ebebeb"></rect><rect x="112.8" y="399.65" width="19.19" height="0.25" style="fill:#ebebeb"></rect><rect x="312.33" y="395.31" width="30.21" height="0.25" style="fill:#ebebeb"></rect><rect x="351.44" y="395.31" width="19.32" height="0.25" style="fill:#ebebeb"></rect><rect x="391.35" y="399.53" width="58.56" height="0.25" style="fill:#ebebeb"></rect><path d="M237,337.8H43.91a5.71,5.71,0,0,1-5.7-5.71V60.66A5.71,5.71,0,0,1,43.91,55H237a5.71,5.71,0,0,1,5.71,5.71V332.09A5.71,5.71,0,0,1,237,337.8ZM43.91,55.2a5.46,5.46,0,0,0-5.45,5.46V332.09a5.46,5.46,0,0,0,5.45,5.46H237a5.47,5.47,0,0,0,5.46-5.46V60.66A5.47,5.47,0,0,0,237,55.2Z" style="fill:#ebebeb"></path><path d="M453.31,337.8H260.21a5.72,5.72,0,0,1-5.71-5.71V60.66A5.72,5.72,0,0,1,260.21,55h193.1A5.71,5.71,0,0,1,459,60.66V332.09A5.71,5.71,0,0,1,453.31,337.8ZM260.21,55.2a5.47,5.47,0,0,0-5.46,5.46V332.09a5.47,5.47,0,0,0,5.46,5.46h193.1a5.47,5.47,0,0,0,5.46-5.46V60.66a5.47,5.47,0,0,0-5.46-5.46Z" style="fill:#ebebeb"></path><rect x="56.45" y="83.58" width="257.87" height="115.11" style="fill:#f5f5f5"></rect><rect x="314.32" y="83.58" width="17.13" height="115.11" transform="translate(645.76 282.28) rotate(180)" style="fill:#ebebeb"></rect><rect x="243.02" y="83.58" width="1.23" height="115.11" transform="translate(487.27 282.28) rotate(180)" style="fill:#ebebeb"></rect><rect x="192.74" y="83.58" width="1.23" height="115.11" transform="translate(386.71 282.28) rotate(180)" style="fill:#ebebeb"></rect><rect x="123.98" y="83.58" width="1.23" height="115.11" transform="translate(249.19 282.28) rotate(180)" style="fill:#ebebeb"></rect><ellipse cx="113.42" cy="141.14" rx="3.28" ry="3.7" style="fill:#ebebeb"></ellipse><ellipse cx="135.77" cy="141.14" rx="3.28" ry="3.7" style="fill:#ebebeb"></ellipse><ellipse cx="232.46" cy="141.14" rx="3.28" ry="3.7" style="fill:#ebebeb"></ellipse><rect x="249.11" y="183.18" width="60.35" height="7.39" rx="2.72" style="fill:#ebebeb"></rect><rect x="56.45" y="267.28" width="257.87" height="115.11" transform="translate(370.77 649.68) rotate(180)" style="fill:#f5f5f5"></rect><rect x="314.32" y="267.28" width="17.13" height="115.11" transform="translate(645.76 649.68) rotate(180)" style="fill:#ebebeb"></rect><rect x="126.52" y="267.28" width="1.23" height="115.11" style="fill:#ebebeb"></rect><rect x="176.8" y="267.28" width="1.23" height="115.11" style="fill:#ebebeb"></rect><rect x="245.56" y="267.28" width="1.23" height="115.11" style="fill:#ebebeb"></rect><path d="M254.06,281.5a3.31,3.31,0,1,1,3.29,3.7A3.51,3.51,0,0,1,254.06,281.5Z" style="fill:#ebebeb"></path><ellipse cx="235" cy="281.5" rx="3.28" ry="3.7" style="fill:#ebebeb"></ellipse><ellipse cx="167.83" cy="281.5" rx="3.28" ry="3.7" style="fill:#ebebeb"></ellipse><rect x="61.31" y="275.41" width="60.35" height="2.39" rx="1.13" transform="translate(182.98 553.22) rotate(180)" style="fill:#ebebeb"></rect><rect x="61.31" y="282.5" width="60.35" height="2.39" rx="1.13" transform="translate(182.98 567.39) rotate(180)" style="fill:#ebebeb"></rect><rect x="54.56" y="262.56" width="261.48" height="4.73" style="fill:#ebebeb"></rect><rect x="316.04" y="262.56" width="17.18" height="4.73" transform="translate(649.26 529.84) rotate(180)" style="fill:#e0e0e0"></rect><rect x="348.33" y="131.81" width="87.33" height="241.26" style="fill:#e0e0e0"></rect><rect x="344.92" y="129.81" width="43.67" height="241.26" style="fill:#f5f5f5"></rect><rect x="390" y="129.81" width="43.67" height="241.26" style="fill:#f5f5f5"></rect><rect x="392.84" y="205" width="3.66" height="90.88" style="fill:#e6e6e6"></rect><rect x="382.09" y="205" width="3.66" height="90.88" style="fill:#e6e6e6"></rect><rect x="435.67" y="131.81" width="17" height="241.26" transform="translate(888.33 504.87) rotate(180)" style="fill:#e6e6e6"></rect><rect x="352.08" y="373.07" width="97.82" height="9.33" style="fill:#e0e0e0"></rect></g><g id="freepik--Shadow--inject-32"><ellipse id="freepik--path--inject-32" cx="250" cy="416.24" rx="193.89" ry="11.32" style="fill:#f5f5f5"></ellipse></g><g id="freepik--Oven--inject-32"><rect x="104.5" y="291.44" width="1" height="20.47" style="fill:#FFC100"></rect><rect x="104.5" y="317.5" width="1" height="5.5" style="fill:#FFC100"></rect><rect x="108" y="236.99" width="151.76" height="178.13" style="fill:#FFC100"></rect><path d="M190,234.38a6.92,6.92,0,0,1-.79-4.95.24.24,0,0,0-.43-.18,9,9,0,0,0-.54.83.24.24,0,0,1-.44-.13,8,8,0,0,0-1.11-4.74c-.18,1.6-2.36,4.93-2.59,7.57a.24.24,0,0,1-.48,0,9.12,9.12,0,0,1-.13-1.05.24.24,0,0,0-.47-.05,2.17,2.17,0,0,1-.07.24q-.1-.45-.24-.87a.35.35,0,0,0-.69.08,11.92,11.92,0,0,1-.21,1.56.35.35,0,0,1-.7,0c-.34-3.78-3.36-8.51-3.82-11a.11.11,0,0,0-.2,0,12.15,12.15,0,0,0-1.49,6.81.36.36,0,0,1-.67.2,11.15,11.15,0,0,0-.79-1.25.36.36,0,0,0-.64.28,10.67,10.67,0,0,1-.71,6.5.36.36,0,0,1,0-.09,5.73,5.73,0,0,1-.66-4.09.2.2,0,0,0-.35-.15,7.1,7.1,0,0,0-.44.69.2.2,0,0,1-.37-.1,6.54,6.54,0,0,0-.92-3.92c-.14,1.32-1.94,4.07-2.14,6.25a.2.2,0,0,1-.39,0,8.62,8.62,0,0,1-.11-.87.2.2,0,0,0-.39,0c-.91,2.88-.44,7.38,3.3,7.08a4.3,4.3,0,0,0,1-.2c.11,2.54,1.92,4.79,5.48,5.07,4,.32,5.87-2.33,6.46-5.63a3.61,3.61,0,0,0,3.78,2.07C190.53,240,191.5,236.82,190,234.38Z" style="fill:#FFC100;opacity:0.7000000000000001"></path><rect x="114.01" y="235" width="139.73" height="1.99" style="fill:#263238"></rect><rect x="244.31" y="236.99" width="15.46" height="178.13" style="opacity:0.2"></rect><rect x="108" y="265.96" width="136.31" height="1.93" transform="translate(352.31 533.86) rotate(180)" style="opacity:0.2"></rect><rect x="154.01" y="246.77" width="44.28" height="9.41" transform="translate(352.31 502.95) rotate(180)" style="opacity:0.30000000000000004"></rect><rect x="108" y="398.49" width="136.31" height="1.93" transform="translate(352.31 798.92) rotate(180)" style="opacity:0.2"></rect><rect x="115.61" y="282.93" width="121.09" height="102.81" rx="1.66" transform="translate(352.31 668.67) rotate(180)" style="fill:#263238;opacity:0.7000000000000001"></rect><rect x="138.67" y="273.01" width="74.96" height="3.34" rx="1.64" transform="translate(352.31 549.36) rotate(180)" style="fill:#263238;opacity:0.2"></rect><rect x="132.36" y="281.4" width="87.6" height="105.88" rx="8.24" transform="translate(510.49 158.18) rotate(90)" style="fill:#FFC100;opacity:0.2"></rect><rect x="175.47" y="281.4" width="1.38" height="105.88" transform="translate(510.49 158.18) rotate(90)" style="fill:#FFC100;opacity:0.2"></rect><rect x="175.47" y="304.5" width="1.38" height="105.88" transform="translate(533.59 181.29) rotate(90)" style="fill:#FFC100;opacity:0.2"></rect><rect x="175.47" y="258.29" width="1.38" height="105.88" transform="translate(487.38 135.08) rotate(90)" style="fill:#FFC100;opacity:0.2"></rect><rect x="115.7" y="415.12" width="11.96" height="1.46" style="fill:#263238"></rect><rect x="224.65" y="415.12" width="11.96" height="1.46" style="fill:#263238"></rect><rect x="240.1" y="415.12" width="11.96" height="1.46" style="fill:#263238"></rect><rect x="131.16" y="415.12" width="11.96" height="1.46" style="fill:#263238"></rect><path d="M146.31,251.48a4.71,4.71,0,1,1-4.7-4.71A4.7,4.7,0,0,1,146.31,251.48Z" style="fill:#263238;opacity:0.7000000000000001"></path><path d="M131.57,251.48a4.71,4.71,0,1,1-4.71-4.71A4.7,4.7,0,0,1,131.57,251.48Z" style="fill:#263238;opacity:0.7000000000000001"></path><path d="M230.15,251.48a4.71,4.71,0,1,1-4.7-4.71A4.69,4.69,0,0,1,230.15,251.48Z" style="fill:#263238;opacity:0.7000000000000001"></path><path d="M215.41,251.48a4.71,4.71,0,1,1-4.71-4.71A4.7,4.7,0,0,1,215.41,251.48Z" style="fill:#263238;opacity:0.7000000000000001"></path></g><g id="freepik--Character--inject-32"><path d="M353.25,166.93c2.09-18.27,9.68-50.51-6.47-59.87-11.77-6.82-16.57,3.21-24.85,9.89l2.75,1.68s18.18-14.24,18.93,4c.64,15.76-12.08,18.37-18.61,55.56s40.21,31,43.74,25.54C352.71,205.07,351.17,185.21,353.25,166.93Z" style="fill:#263238"></path><path d="M322.15,116.42c1.26-1.9,5.07-6.43,6.16-6.46s5.11,3.26,4.56,4.79-7.36,4.55-7.36,4.55Z" style="fill:#FFC100"></path><path d="M364.11,202.15a7.79,7.79,0,0,1-4.47-1.41c-6.46-4.4-8.77-18.4-7.71-30,.22-2.37.54-5,.89-7.78,2-15.87,4.65-37.61-9-45l.44-.83c14.2,7.68,11.46,29.79,9.46,45.93-.34,2.77-.67,5.39-.88,7.75-1,11.27,1.14,24.88,7.3,29.08,2.4,1.63,5.22,1.65,8.4,0l.42.84A10.82,10.82,0,0,1,364.11,202.15Z" style="fill:#263238"></path><path d="M338.48,169.63a121.5,121.5,0,0,1,6.44,12.25,107.52,107.52,0,0,1,5,13l.26.84.07.22.11.4c.07.27.11.52.16.77a11,11,0,0,1,.06,2.66,18.61,18.61,0,0,1-1,4.12,40.52,40.52,0,0,1-3.15,6.62,75.49,75.49,0,0,1-8.15,11.26l-3.65-2.58c2-3.85,4-7.83,5.66-11.74a40.13,40.13,0,0,0,2-5.76,10.57,10.57,0,0,0,.34-2.45,2.41,2.41,0,0,0-.08-.69s0,0,0,0h0l-.06-.17-.3-.75c-1.56-4-3.38-7.91-5.32-11.8s-4-7.8-6.09-11.48Z" style="fill:#ffc3bd"></path><path d="M293.75,174.31c-.52,1.39-1,2.57-1.55,3.81s-1.1,2.44-1.67,3.64c-1.15,2.4-2.45,4.74-3.77,7.05A86.2,86.2,0,0,1,277.48,202l-.67.77-.33.38-.17.19-.28.3a9.75,9.75,0,0,1-2.57,1.92,13,13,0,0,1-5.27,1.33,27.16,27.16,0,0,1-8.75-1.22A61.64,61.64,0,0,1,244.79,199l2-4A84.81,84.81,0,0,0,261,198.92a22.3,22.3,0,0,0,6.52.3,5.38,5.38,0,0,0,2.1-.7,1.87,1.87,0,0,0,.45-.43l1-1.33A102.14,102.14,0,0,0,279,184.41c1.18-2.16,2.27-4.38,3.35-6.6.53-1.11,1.05-2.23,1.55-3.35s1-2.29,1.41-3.3Z" style="fill:#ffc3bd"></path><path d="M290.88,162.22c-3.75-.13-10.4,13.53-10.4,13.53l9.78,11.86s11.4-14.31,9.84-18.93C298.47,163.86,296.36,162.41,290.88,162.22Z" style="fill:#FFC100"></path><polygon points="290.26 165.52 285.18 181.45 289.76 186.99 290.26 165.52" style="opacity:0.2"></polygon><path d="M247.5,194l-9.11.82-1.5,3.51,1.49,1.67a6.23,6.23,0,0,0,4.83,2.07l9.18-.26-.2-3a2,2,0,0,0-.48-1.18A19.54,19.54,0,0,0,247.5,194Z" style="fill:#ffc3bd"></path><path d="M250.76,198.84c-3.11-.55-2.79-3.42-8.67-5.41-2.08-.7-2.76-2.53-.88-2.27,4.13.55,11.76-.45,11.36,6.22C252.33,201.42,250.76,198.84,250.76,198.84Z" style="fill:#ffc3bd"></path><path d="M210.51,200.44l-41.85,2.26a3.49,3.49,0,0,1-2.67-1.09l-5-5.14,56.55-3.07L213,199.06A3.49,3.49,0,0,1,210.51,200.44Z" style="fill:#FFC100"></path><path d="M210.51,200.44l-41.85,2.26a3.49,3.49,0,0,1-2.67-1.09l-5-5.14,56.55-3.07L213,199.06A3.49,3.49,0,0,1,210.51,200.44Z" style="fill:#fff;opacity:0.6000000000000001"></path><path d="M211.79,196.45a7.16,7.16,0,0,1,4.26-1.75l33.58-1.94a1.33,1.33,0,0,1,1,.33h0a1.4,1.4,0,0,1-.65,2.43l-.38.07a1.41,1.41,0,0,1-1.29-.43l-.06-.08a1.4,1.4,0,0,0-1.11-.45l-35.34,1.82Z" style="fill:#FFC100"></path><path d="M197.86,167.9c-16.25-2.23-25.16-5.31-33.31-1.87C151.88,171.4,174.9,177.73,197.86,167.9Z" style="fill:#FFC100"></path><path d="M196.89,167.77c-18.32,7.41-36.28,4.7-35.7.61a7,7,0,0,1,3.37-2.34C172.53,162.66,181.26,165.56,196.89,167.77Z" style="opacity:0.2"></path><path d="M196.89,167.77c-18.32,7.41-36.28,4.7-35.7.61a7,7,0,0,1,3.37-2.34C172.53,162.66,181.26,165.56,196.89,167.77Z" style="opacity:0.2"></path><path d="M183,172.23c13.69-9.95,17-19.71,26.55-19.57C223.35,152.88,209.8,168,183,172.23Z" style="fill:#FFC100"></path><path d="M209.59,152.66c-9.61-.15-12.86,9.62-26.55,19.57l1.33-.22c12.79-9.67,16.13-18.91,25.47-18.77,2.78,0,4.44.7,5.11,1.75C214.58,153.6,212.86,152.71,209.59,152.66Z" style="fill:#fff;opacity:0.4"></path><polygon points="306.92 407.56 298.09 407.56 299.63 387.12 308.46 387.12 306.92 407.56" style="fill:#ffc3bd"></polygon><path d="M297.29,406.54h9.91a.66.66,0,0,1,.68.6l.7,7.85a1.51,1.51,0,0,1-1.5,1.57c-3.46-.06-5.11-.26-9.48-.26-2.68,0-10.4.28-14.11.28s-3.7-3.67-2.14-4c7-1.49,12-3.54,14.43-5.5A2.45,2.45,0,0,1,297.29,406.54Z" style="fill:#263238"></path><g style="opacity:0.2"><polygon points="299.63 387.12 298.84 397.66 307.67 397.66 308.47 387.12 299.63 387.12"></polygon></g><path d="M287.34,166.6c-.2,5.58.77,18.62,6.64,49l35.84-1.07c-1-14.57-1.32-23.56,4.76-53.7a104.9,104.9,0,0,0-15.28-1.56,114.38,114.38,0,0,0-16.27.49c-4.15.5-8.62,1.36-11.56,2A5.18,5.18,0,0,0,287.34,166.6Z" style="fill:#FFC100"></path><path d="M317.15,141c-.87,5.26-1.61,14.89,2.15,18.27,0,0-1.84,6.57-12.86,11.22C300,165.35,303,159.73,303,159.73c5.8-1.57,5.52-5.9,4.38-9.94Z" style="fill:#ffc3bd"></path><path d="M313.18,144.57l-5.77,5.22a15.41,15.41,0,0,1,.59,2.87c2.22-.39,5.21-2.93,5.38-5.27A8.05,8.05,0,0,0,313.18,144.57Z" style="opacity:0.2"></path><path d="M312.57,122.44c1.15,2.12-2.84,17.23-6.21,24.34-2.12-3.43-5.46-5-7.48-8.49a14.59,14.59,0,0,1,.72-16.4C304.2,115.44,311,119.47,312.57,122.44Z" style="fill:#263238"></path><path d="M323,131.11c-1.57,8.62-2.05,12.3-7,16.23-7.4,5.92-17.65,2.1-18.68-6.82-.93-8,1.8-20.77,10.71-23.21A12,12,0,0,1,323,131.11Z" style="fill:#ffc3bd"></path><path d="M318.63,123.78c-2.51,3.23,0,11.11,2.64,14.18,11.6,1.17,17.85-23.69-1.46-23.69C319.81,114.27,312.71,118.69,318.63,123.78Z" style="fill:#263238"></path><path d="M321.31,124.86c-2,1.36-18.6,1.09-26-1.53,3.2-2.46,5.41-5.52,8.68-7.9,3.45-2.5,8.13-4.55,15.39-1.37S324.09,123,321.31,124.86Z" style="fill:#263238"></path><path d="M293.94,215.57s.95,65.58,2,92.39c1.11,27.88,1.29,87.66,1.29,87.66h11.93s5.81-60.79,6.37-88.3c.61-30,4.68-92.53,4.68-92.53Z" style="fill:#263238"></path><polygon points="310.19 396.05 296.19 396.05 295.4 391.58 311.12 391.03 310.19 396.05" style="fill:#FFC100"></polygon><path d="M318.79,238.21c-1.36-1.61-3-.77-5,3.81-6.81,15.64-1.82,40.6,2.07,55C316.47,279.1,317.76,255.52,318.79,238.21Z" style="opacity:0.2"></path><path d="M308.18,132.43c-.09.7-.53,1.23-1,1.18s-.77-.68-.69-1.38.53-1.24,1-1.18S308.26,131.72,308.18,132.43Z" style="fill:#263238"></path><path d="M300.22,131.27c-.09.71-.53,1.24-1,1.18s-.77-.67-.69-1.38.53-1.24,1-1.18S300.3,130.56,300.22,131.27Z" style="fill:#263238"></path><path d="M299.73,130l-1.64-.69S298.81,130.69,299.73,130Z" style="fill:#263238"></path><path d="M303.19,132.37a19.23,19.23,0,0,1-3.06,4.21,3.05,3.05,0,0,0,2.46.77Z" style="fill:#ed847e"></path><path d="M306.11,140.58a7.6,7.6,0,0,1-1.05,0,.22.22,0,0,1-.18-.24.22.22,0,0,1,.23-.18,5.62,5.62,0,0,0,4.83-1.64.21.21,0,1,1,.32.27A5.83,5.83,0,0,1,306.11,140.58Z" style="fill:#263238"></path><path d="M324,139.52a6.36,6.36,0,0,1-4.56,1.76c-2.25-.08-2.69-2.25-1.51-4,1.07-1.59,3.53-3.47,5.51-2.53A2.87,2.87,0,0,1,324,139.52Z" style="fill:#ffc3bd"></path><path d="M311.71,130.54a.41.41,0,0,1-.41-.28c-.66-1.81-3.06-2.49-3.09-2.49a.42.42,0,0,1-.29-.52.42.42,0,0,1,.51-.29c.12,0,2.85.8,3.65,3a.4.4,0,0,1-.25.53A.27.27,0,0,1,311.71,130.54Z" style="fill:#263238"></path><path d="M298.35,126.85a.45.45,0,0,1-.37-.2.42.42,0,0,1,.13-.57,4.17,4.17,0,0,1,3.79-.45.42.42,0,0,1,.21.56.42.42,0,0,1-.55.21h0a3.28,3.28,0,0,0-3,.38A.52.52,0,0,1,298.35,126.85Z" style="fill:#263238"></path><path d="M334.58,160.8c3.63,1,8.31,13.22,8.31,13.22l-13.64,10.37s-5.39-10.17-4-14.86C326.66,164.65,330.45,159.67,334.58,160.8Z" style="fill:#FFC100"></path><path d="M293.89,408.08a3.16,3.16,0,0,1-2.11-.54,1.1,1.1,0,0,1-.33-1,.71.71,0,0,1,.39-.55c1.11-.6,4.53,1.2,4.92,1.41a.18.18,0,0,1,.1.21.24.24,0,0,1-.18.18A15.24,15.24,0,0,1,293.89,408.08Zm-1.48-1.82a.88.88,0,0,0-.39.07.27.27,0,0,0-.15.23.72.72,0,0,0,.2.67c.51.48,2,.56,3.93.24A10.82,10.82,0,0,0,292.41,406.26Z" style="fill:#FFC100"></path><path d="M296.64,407.77a.11.11,0,0,1-.08,0c-1-.47-3-2.38-2.79-3.38.05-.23.24-.53.82-.59a1.48,1.48,0,0,1,1.14.36c1.06.93,1.13,3.31,1.13,3.41a.2.2,0,0,1-.1.18A.17.17,0,0,1,296.64,407.77Zm-1.91-3.58h-.12c-.39,0-.42.19-.43.24-.13.6,1.2,2.1,2.24,2.75a4.58,4.58,0,0,0-1-2.72A1,1,0,0,0,294.73,404.19Z" style="fill:#FFC100"></path><polygon points="358.71 407.56 349.89 407.56 345.66 387.12 354.49 387.12 358.71 407.56" style="fill:#ffc3bd"></polygon><path d="M348.88,406.54h9.92a.68.68,0,0,1,.69.6l1,7.85a1.44,1.44,0,0,1-1.44,1.57c-3.46-.06-5.12-.26-9.48-.26-2.69,0-5.3.28-9,.28s-3.84-3.67-2.29-4c6.94-1.49,6.76-3.54,9.13-5.5A2.33,2.33,0,0,1,348.88,406.54Z" style="fill:#263238"></path><g style="opacity:0.2"><polygon points="345.67 387.12 347.84 397.66 356.67 397.66 354.5 387.12 345.67 387.12"></polygon></g><path d="M329.84,214.5c9.46,13.67,12.93,63.87,16,90.7,3.16,27.92,11.3,90.42,11.3,90.42H345.18S332.42,332,325.39,305.06c-7.77-29.74-18.5-90.56-18.5-90.56Z" style="fill:#263238"></path><polygon points="357.95 396.05 343.94 396.05 343.15 391.58 358.87 391.03 357.95 396.05" style="fill:#FFC100"></polygon><path d="M347.75,406.79a4.37,4.37,0,0,1-2-1.42,1.17,1.17,0,0,1-.13-1.08.56.56,0,0,1,.49-.35c1.22-.07,4.26,3.07,4.6,3.43a.23.23,0,0,1,.06.24.17.17,0,0,1-.21.09A18.28,18.28,0,0,1,347.75,406.79Zm-1.1-2.33a.9.9,0,0,0-.41-.1.2.2,0,0,0-.19.15.73.73,0,0,0,.07.7c.41.67,1.83,1.37,3.85,1.92A15.51,15.51,0,0,0,346.65,404.46Z" style="fill:#FFC100"></path><path d="M350.54,407.69a.24.24,0,0,1-.08-.06c-.92-.88-2.51-3.5-2.11-4.33.1-.2.34-.39.93-.19a2,2,0,0,1,1.06.82,5.86,5.86,0,0,1,.46,3.64.15.15,0,0,1-.13.13A.29.29,0,0,1,350.54,407.69Zm-1.2-4.14-.12-.05c-.39-.13-.45,0-.47,0-.25.5.78,2.46,1.68,3.51a5,5,0,0,0-.44-2.94A1.4,1.4,0,0,0,349.34,403.55Z" style="fill:#FFC100"></path><path d="M307.69,131.11l-1.64-.69S306.77,131.85,307.69,131.11Z" style="fill:#263238"></path><path d="M330.3,212.38l1,3.18c.13.25-.16.51-.57.52l-36.89,1.1c-.32,0-.59-.14-.62-.34l-.42-3.2c0-.22.25-.42.6-.43l36.29-1.08A.66.66,0,0,1,330.3,212.38Z" style="fill:#FFC100"></path><path d="M325.54,216.59l1,0c.2,0,.34-.11.32-.23l-.58-4.16c0-.12-.18-.22-.38-.21l-1,0c-.19,0-.34.11-.32.23l.58,4.16C325.18,216.5,325.35,216.59,325.54,216.59Z" style="fill:#263238"></path><path d="M296.59,217.45l1,0c.19,0,.33-.11.32-.23l-.58-4.16c0-.12-.19-.21-.39-.21l-1,0c-.19,0-.34.11-.32.23l.58,4.16C296.23,217.36,296.4,217.45,296.59,217.45Z" style="fill:#263238"></path><path d="M311.07,217l1,0c.19,0,.34-.11.32-.23l-.58-4.16c0-.12-.19-.22-.38-.21l-1,0c-.2,0-.34.11-.33.23l.58,4.16C310.7,216.93,310.87,217,311.07,217Z" style="fill:#263238"></path><path d="M334,221.89c-21.7-1.18-16.33-47.41-16.33-47.41H317c.91-3.66,3.86-11.61,7.77-15.12a4.39,4.39,0,0,0-1.76-.19,37.42,37.42,0,0,0-7.32,15.34l-16.55.36c-.43-4.09-.94-10.73,1.82-15.31a4.19,4.19,0,0,0-1.73.24s-2.73,5.19-1.39,15.1h-.29c0,25.72.28,41.68-4.71,46.39-1,7.91,0,51.68,0,51.68s21.82,4.69,43.24-2.18C331.84,240.65,336.22,225.57,334,221.89Z" style="fill:#FFC100"></path><path d="M334,221.89c-21.7-1.18-16.33-47.41-16.33-47.41H317c.91-3.66,3.86-11.61,7.77-15.12a4.39,4.39,0,0,0-1.76-.19,37.42,37.42,0,0,0-7.32,15.34l-16.55.36c-.43-4.09-.94-10.73,1.82-15.31a4.19,4.19,0,0,0-1.73.24s-2.73,5.19-1.39,15.1h-.29c0,25.72.28,41.68-4.71,46.39-1,7.91,0,51.68,0,51.68s21.82,4.69,43.24-2.18C331.84,240.65,336.22,225.57,334,221.89Z" style="fill:#fff;opacity:0.8"></path><path d="M336.71,217.41l-8.18.52,7.16,7s4.41-1.49,4.2-5.3Z" style="fill:#ffc3bd"></path><polygon points="324.98 223.14 331.16 228.73 335.69 224.96 328.53 217.93 324.98 223.14" style="fill:#ffc3bd"></polygon></g></svg>